<?xml version="1.0" encoding="iso-8859-1"?>
<!-- Uploaded to: SVG Repo, www.svgrepo.com, Generator: SVG Repo Mixer Tools -->
<svg height="800px" width="800px" version="1.1" id="Layer_1" xmlns="http://www.w3.org/2000/svg" xmlns:xlink="http://www.w3.org/1999/xlink" 
	 viewBox="0 0 297 297" xml:space="preserve">
<g>
	<g>
		<g>
			<path d="M295.944,219.25c-1.646-4.675-5.015-8.427-9.485-10.569c-2.54-1.217-5.264-1.83-8.001-1.83
				c-2.077,0-4.161,0.353-6.178,1.064c-4.674,1.647-8.427,5.015-10.568,9.485c-2.14,4.47-2.413,9.505-0.766,14.179c0,0,0,0,0.001,0
				c1.646,4.675,5.015,8.427,9.484,10.569c4.471,2.14,9.506,2.414,14.179,0.766C294.259,239.515,299.344,228.899,295.944,219.25z"
        fill="#00fff2"
      />
			<path d="M258.179,59.005c15.092,0.634,27.925-11.111,28.574-26.218c0.314-7.318-2.24-14.321-7.191-19.717
				c-4.951-5.396-11.709-8.542-19.027-8.857c-7.311-0.301-14.321,2.239-19.716,7.191c-5.397,4.952-8.542,11.709-8.858,19.027
				c-0.314,7.318,2.24,14.32,7.191,19.717C244.104,55.545,250.861,58.69,258.179,59.005z"
        fill="#00fff2"
      />
			<path d="M207.574,89.168l25.189-23.112c-1.942-1.506-3.778-3.176-5.473-5.024c-2.958-3.224-5.376-6.809-7.216-10.646
				l-27.272,25.022C198.499,79.166,203.471,83.812,207.574,89.168z"
        fill="#00ff55"
      />
			<path d="M105.419,156.211l-84.536,97.771c1.138,0.377,2.262,0.821,3.361,1.348c5.217,2.498,9.44,6.448,12.253,11.363
				l81.697-94.488C113.069,167.649,108.759,162.257,105.419,156.211z"
        fill="#00ff55"
      />
			<path d="M163.472,233.207c-2.54-1.218-5.264-1.83-8-1.83c-2.077,0-4.162,0.353-6.179,1.063
				c-4.675,1.647-8.427,5.016-10.569,9.485c-2.14,4.469-2.412,9.504-0.766,14.179c1.647,4.675,5.015,8.427,9.485,10.569
				c4.471,2.14,9.505,2.414,14.18,0.766c4.675-1.646,8.427-5.015,10.568-9.484c2.141-4.47,2.413-9.505,0.766-14.18
				C171.31,239.1,167.941,235.348,163.472,233.207z"
        fill="#00fff2"
      />
			<path d="M9.963,66.147c2.581,7.323,10.636,11.182,17.961,8.601c7.324-2.58,11.183-10.636,8.602-17.96
				c-2.58-7.322-10.636-11.182-17.96-8.601c-3.548,1.249-6.396,3.806-8.022,7.198C8.92,58.777,8.714,62.6,9.963,66.147L9.963,66.147
				z"
        fill="#00fff2"
      />
			<path d="M17.289,269.85c-1.653-0.792-3.426-1.191-5.205-1.191c-1.351,0-2.707,0.23-4.019,0.693
				c-3.04,1.071-5.482,3.262-6.875,6.169c-1.392,2.908-1.569,6.184-0.498,9.224c1.071,3.041,3.262,5.483,6.169,6.876
				c2.908,1.391,6.184,1.569,9.223,0.498c3.042-1.072,5.484-3.262,6.877-6.17c1.392-2.908,1.569-6.183,0.498-9.223
				C22.387,273.685,20.197,271.243,17.289,269.85z"
        fill="#00fff2"
      />
			<path d="M165.757,216.848l3.77-30.024c-3.518,0.623-7.063,0.94-10.602,0.94c-3.247,0-6.488-0.271-9.699-0.793l-3.74,29.782
				C152.165,214.739,159.173,214.784,165.757,216.848z"
        fill="#00ff55"
      />
			<path d="M213.045,155.24c-3.209,6.046-7.343,11.421-12.224,15.988l48.083,36.106c3.559-5.826,8.849-10.633,15.448-13.567
				L213.045,155.24z"
        fill="#00ff55"
      />
			<path d="M103.724,100.014c1.471-3.072,3.186-5.976,5.098-8.715L53.267,64.691c-0.363,3.362-1.297,6.674-2.802,9.814
				c-1.504,3.14-3.5,5.944-5.892,8.335l55.556,26.609C101.064,106.242,102.252,103.086,103.724,100.014z"
        fill="#00ff55"
      />
			<path d="M201.561,111.47c-4.007-11.376-12.206-20.511-23.084-25.721c-6.183-2.961-12.813-4.453-19.473-4.453
				c-5.056,0-10.128,0.86-15.039,2.59c-11.376,4.007-20.511,12.206-25.721,23.084c-5.21,10.878-5.871,23.134-1.864,34.511
				c0.001,0,0.001,0,0.001,0c4.007,11.376,12.206,20.511,23.084,25.721c10.878,5.211,23.134,5.873,34.511,1.865
				c11.376-4.008,20.511-12.207,25.721-23.085C204.908,135.103,205.57,122.847,201.561,111.47z"
        fill="#047000"
      />
		</g>
	</g>
</g>
</svg>