<?xml version="1.0" encoding="UTF-8"?>
<svg viewBox="0 0 406.25 406.25" xmlns="http://www.w3.org/2000/svg" xmlns:xlink="http://www.w3.org/1999/xlink">
 <defs>
  <linearGradient id="a">
   <stop stop-color="#69db0e" offset="0"/>
   <stop stop-color="#397607" offset="1"/>
  </linearGradient>
  <linearGradient id="b" x1="213.83" x2="214.59" y1="183.48" y2="463.47" gradientTransform="matrix(1.5539 0 0 .64354 -1.0179 2.8422e-14)" gradientUnits="userSpaceOnUse">
   <stop stop-color="#fff" stop-opacity=".69072" offset="0"/>
   <stop stop-color="#fff" stop-opacity="0" offset="1"/>
  </linearGradient>
  <linearGradient id="d" x2="0" y1="506.29" y2="466.28" gradientUnits="userSpaceOnUse" xlink:href="#a"/>
  <linearGradient id="c" x2="0" y1="469.5" y2="505.08" gradientUnits="userSpaceOnUse" xlink:href="#a"/>
 </defs>
 <g transform="translate(-130.29 -93.649)">
  <path transform="matrix(9.1612 0 0 9.1612 -4460.6 -4165)" d="m544.07 487.06a20.784 20.784 0 1 1 -41.567 0 20.784 20.784 0 1 1 41.567 0z" fill="url(#d)" stroke="url(#c)" stroke-linecap="round" stroke-linejoin="round" stroke-width="1.3644"/>
  <path d="m471.57 246.89c44.367-0.96679-12.4-123.15-135.68-123.8-134.56-0.68712-162.1 110.96-140.72 113 0 0 36.864 5.0626 71.94 14.856 56.473 15.931 125.55-13.069 152.77-17.284 30.342-4.6979 47.373 15.392 51.692 13.233z" fill="url(#b)" fill-rule="evenodd" opacity=".9"/>
 </g>
</svg>
